<svg xmlns="http://www.w3.org/2000/svg" viewBox="0 0 32 32" fill="none">
  <defs>
    <linearGradient id="logo-grad" x1="0%" y1="0%" x2="100%" y2="100%">
      <stop offset="0%" stop-color="#2563eb"/>
      <stop offset="100%" stop-color="#7c3aed"/>
    </linearGradient>
  </defs>
  <rect width="32" height="32" rx="8" fill="url(#logo-grad)"/>
  <g transform="translate(4, 4)" stroke="white" stroke-width="2" stroke-linecap="round" stroke-linejoin="round">
    <path d="M3 3h.01"/>
    <path d="M7 5h.01"/>
    <path d="M11 7h.01"/>
    <path d="M3 7h.01"/>
    <path d="M7 9h.01"/>
    <path d="M3 11h.01"/>
    <rect width="4" height="4" x="15" y="5" fill="none"/>
    <path d="m19 9 2 2v10c0 .6-.4 1-1 1h-6c-.6 0-1-.4-1-1V11l2-2"/>
    <path d="m13 14 8-2"/>
    <path d="m13 19 8-2"/>
  </g>
</svg>
